<svg viewBox="0 0 128 128" xmlns="http://www.w3.org/2000/svg">
 <path d="m38 85-19 19q-3 3-8 3-4 0-8-3-3-3-3-8v-2l6-47q1-11 9-19 9-7 20-7h58q11 0 19 7 9 8 10 19l6 47v2q0 5-3 8-4 3-8 3-5 0-8-3l-19-19zm-6-51v12h-13v7h13v13h6v-13h13v-7h-13v-12zm61 0q-2 0-4 1-1 1-1 3t1 4q2 1 4 1t3-1q2-2 2-4t-2-3q-1-1-3-1zm-11 11q-2 0-4 1-1 1-1 4 0 2 1 3 2 1 4 1 1 0 3-1 1-1 1-3t-1-4q-2-1-3-1zm22 0q-2 0-3 1-2 1-2 4 0 2 2 3 1 1 3 1t3-1q2-1 2-3t-2-4q-1-1-3-1zm-11 11q-2 0-4 1-1 2-1 4t1 3q2 2 4 2t3-2q2-1 2-3t-2-4q-1-1-3-1z" fill="#FFF"/>
</svg>
