<svg viewBox="0 0 128 128" xmlns="http://www.w3.org/2000/svg">
 <path d="m128 64v1q0 4-3 8-2 3-6 5t-9 2h-24q-5 0-8 4-4 3-4 8 0 1 0 2 1 3 3 8 1 2 1 3 1 2 2 4 0 2 0 3 0 7-4 11-4 5-9 5-1 0-2 0t-1 0q-9 0-17-2-8-3-15-7t-13-10-10-13-7-15q-2-8-2-17t2-17q3-8 7-15t10-13 13-10 15-7q8-2 17-2t17 2q8 3 15 7t13 10 10 13 7 15q2 8 2 17zm-98 14q2-3 2-6t-2-6q-3-2-6-2t-6 2q-2 3-2 6t2 6q3 2 6 2t6-2zm-4-32q3 2 6 2t6-2q2-3 2-6t-2-6q-3-2-6-2t-6 2q-2 3-2 6t2 6zm44-16q2-3 2-6t-2-6q-3-2-6-2t-6 2q-2 3-2 6t2 6q3 2 6 2t6-2zm20 16q3 2 6 2t6-2q2-3 2-6t-2-6q-3-2-6-2t-6 2q-2 3-2 6t2 6z" fill="#FFF"/>
</svg>