<svg viewBox="0 0 128 128" xmlns="http://www.w3.org/2000/svg">
 <path d="m64 0q17 0 32 9t23 23q9 15 9 32 0 18-9 32-8 15-23 23-15 9-32 9t-32-9q-15-8-23-23-9-14-9-32 0-17 9-32 8-14 23-23t32-9zm48 40q-4-10-12-17t-18-10q7 12 10 27zm6 29q1-3 0-5 0-8-2-14h-23q1 4 1 9 0 10-2 20h24q1-5 2-10zm-35 0v-1q1-4 1-9 0-4-1-9h-38q0 4 0 9 0 10 2 20h35q1-5 1-10zm-2-29q-3-16-12-30h-10q-9 14-12 30zm-44 0q2-14 9-27-10 4-17 10-8 7-13 17zm-25 9q-2 8-2 15 0 8 2 15h25q-2-10-2-20 0-4 0-9h-23zm27 39h-23q6 12 16 19 10 8 22 10-10-13-15-28zm25 27q9-12 15-26h-29q5 14 14 26zm25-27q-5 16-14 29 12-2 22-10 9-7 15-19z" fill="#FFF"/>
</svg>
