<svg version="1.1" viewBox="0 0 2048 2048" xmlns="http://www.w3.org/2000/svg">
<path d="m1854 835-240-62-206 115v298l206 115 240-62 54 197-182 48 48 183-202 53-62-241-202-115-256 149v231l178 173-144 144-134-130-134 130-146-144 178-173v-231l-258-149-202 115-64 241-196-53 48-183-178-48 54-197 234 62 208-115v-298l-208-115-234 62-54-197 178-48-48-183 202-53 62 241 202 115 254-149v-231l-178-173 146-144 134 130 134-130 144 144-178 173v231l260 149 202-115 68-236 192 48-48 183 178 48zm-1158 351 256 149 254-149v-298l-254-149-256 149z" fill="#777"/>
</svg>
