<svg version="1.1" viewBox="0 0 1980 2048" xmlns="http://www.w3.org/2000/svg">
<path d="m1122 132v925q0 55-38.5 93.5t-93.5 38.5-93-38.5-38.5-93.5v-925q0-55 38.5-93.5t93-38.5 93.5 38.5 39 93.5zm-596 366h-2q-122 102-191 247.5t-69 311.5q0 148 57 282.5t154.5 232 232 155 282 57.5 282-57.5 232-155 155-232 57.5-282.5q0-166-69.5-311.5t-192.5-247.5q-42-35-47-90t30.5-97 90-46.5 96.5 30.5q166 138 261 337t95 425q0 135-35.5 263.5t-99.5 237-155.5 200-200 155.5-237 99.5-263 35.5-263-35.5-237-99.5-200-155.5-155-200-99-237-35.5-263.5q0-226 95-425t261-337q42-35 96.5-30.5t90 46.5 30.5 97-47 90z" fill="#777"/>
</svg>
