<svg fill="#FFF" viewBox="0 0 1200 1200" xmlns="http://www.w3.org/2000/svg">
<path d="m924 87c-24 0-43-19-43-43s19-43 43-43h231c18 0 33 11 40 27s3 35-9 47l-157 157h127c24 0 43 19 43 43s-19 43-43 43h-231c-18 0-33-11-40-27s-3-35 9-47l157-157zm-260 347c-24 0-43-19-43-43s19-43 43-43h173c18 0 33 11 40 27s3 35-9 47l-99 99h69c24 0 43 19 43 43s-19 43-43 43h-173c-18 0-33-11-40-27s-3-35 9-47l99-99h-69z"/>
<path d="m578 1199c319 0 578-259 578-578 0-27-40-31-54-8-66 109-185 182-322 182-207 0-376-168-376-376 0-136 73-256 182-322 23-14 18-54-8-54-319 0-578 259-578 578s259 578 578 578z"/>
</svg>
