<svg fill="#FFF" viewBox="0 0 128 128" xmlns="http://www.w3.org/2000/svg">
 <path d="m98.5 9.3c-2.6 0-4.6-2-4.6-4.6s2-4.6 4.6-4.6h24.8c1.9 0 3.5 1.2 4.3 3s0.3 3.7-1 5l-16.7 16.7h13.6c2.6 0 4.6 2 4.6 4.6s-2 4.6-4.6 4.6h-24.8c-1.9 0-3.5-1.2-4.3-3s-0.3-3.7 1-5l16.7-16.7zm-27.7 37c-2.6 0-4.6-2-4.6-4.6s2-4.6 4.6-4.6h18.5c1.9 0 3.5 1.2 4.3 3s0.3 3.7-1 5l-10.6 10.6h7.4c2.6 0 4.6 2 4.6 4.6s-2 4.6-4.6 4.6h-18.5c-1.9 0-3.5-1.2-4.3-3s-0.3-3.7 1-5l10.6-10.6h-7.4z"/>
 <path d="m61.7 127.9c34 0 61.7-27.7 61.7-61.7 0-2.9-4.3-3.3-5.8-0.9-7 11.6-19.7 19.5-34.2 19.5-22 0-40.1-17.8-40.1-40.1 0-14.5 7.8-27 19.5-34.2 2.5-1.5 2-5.8-0.9-5.8-34 0-61.7 27.7-61.7 61.7s27.7 61.7 61.7 61.7z"/>
</svg>
